<svg width="109" height="128" viewBox="0 0 109 128" fill="none" xmlns="http://www.w3.org/2000/svg">
<path d="M9.18249 127.541C4.11629 127.541 0 123.428 0 118.365V39.515C0 17.7205 17.7515 0 39.5599 0H68.8687C90.6771 0 108.429 17.7402 108.429 39.5348V68.825C108.429 90.6196 90.6771 108.36 68.8687 108.36H54.2044C39.0454 108.36 25.0935 110.572 16.9005 123.349C15.1986 125.979 12.3291 127.561 9.18249 127.561V127.541ZM39.5599 9.88865C23.2135 9.88865 9.89492 23.179 9.89492 39.5348V116.031C20.0669 101.594 36.4529 98.4712 54.2044 98.4712H68.8687C85.2151 98.4712 98.5337 85.1808 98.5337 68.825V39.5348C98.5337 23.1988 85.2349 9.88865 68.8687 9.88865H39.5599Z" fill="#26D465"/>
<path d="M60.2805 79.5644C57.5495 79.5644 55.333 77.3493 55.333 74.62C55.333 71.8908 57.5495 69.6757 60.2805 69.6757C71.5211 69.6757 77.5966 60.8748 77.5966 52.5881C77.5966 49.8589 79.813 47.6438 82.544 47.6438C85.275 47.6438 87.4915 49.8589 87.4915 52.5881C87.4915 65.8587 77.3195 79.5644 60.2805 79.5644Z" fill="#26D465"/>
<path d="M41.5679 49.9026C45.3834 49.9026 48.4765 46.8114 48.4765 42.9983C48.4765 39.1852 45.3834 36.094 41.5679 36.094C37.7523 36.094 34.6592 39.1852 34.6592 42.9983C34.6592 46.8114 37.7523 49.9026 41.5679 49.9026Z" fill="#26D465"/>
<path d="M66.6665 49.9028C70.482 49.9028 73.5752 46.8117 73.5752 42.9985C73.5752 39.1854 70.482 36.0942 66.6665 36.0942C62.8509 36.0942 59.7578 39.1854 59.7578 42.9985C59.7578 46.8117 62.8509 49.9028 66.6665 49.9028Z" fill="#26D465"/>
</svg>
